<?xml version="1.0" encoding="utf-8"?>
<!-- Generator: Adobe Illustrator 19.2.1, SVG Export Plug-In . SVG Version: 6.00 Build 0)  -->
<svg version="1.1" id="Layer_1" xmlns="http://www.w3.org/2000/svg" xmlns:xlink="http://www.w3.org/1999/xlink" x="0px" y="0px"
	 height="114.00191px" viewBox="0 0 452.67661 114.00191" enable-background="new 0 0 452.67661 114.00191"
	 xml:space="preserve">
<g>
	<g>
		<path fill="#FFFFFF" d="M0,56.21093c0.51706-1.27566,1.24278-2.32441,2.17641-3.14695
			C3.10968,52.24142,4.21433,51.58989,5.49,51.109c1.2753-0.48052,2.69859-0.81305,4.26988-0.99795
			c1.57092-0.18454,3.24416-0.27735,5.01861-0.27735h15.05583v1.74669H14.66776c-0.9245,0-1.99663,0.04641-3.21638,0.13886
			c-1.22012,0.09245-2.42636,0.29562-3.61834,0.60988c-1.19235,0.31462-2.29225,0.7765-3.2997,1.38638
			c-1.00781,0.60988-1.77007,1.44193-2.2875,2.49542H0z M2.27361,56.87598c0.22181,0.85069,0.60038,1.5764,1.13681,2.17641
			c0.53606,0.60147,1.16458,1.10501,1.88554,1.51136c0.72096,0.40707,1.50624,0.73521,2.35656,0.98443
			c0.84996,0.24921,1.70978,0.43923,2.57873,0.56859c0.86859,0.12936,1.71416,0.21267,2.53708,0.24921
			c0.82218,0.03727,1.55703,0.05555,2.20418,0.05555h14.8618v1.74668H15.0836c-1.90418,0-3.68338-0.10085-5.33762-0.30476
			c-1.6546-0.20317-3.13307-0.57297-4.43614-1.1094c-1.30344-0.5357-2.40809-1.2753-3.31358-2.21807
			c-0.90586-0.94277-1.55265-2.16253-1.94072-3.66H2.27361z"/>
		<path fill="#FFFFFF" d="M69.84435,57.3196c-0.31462,1.38639-0.91098,2.52356-1.7887,3.41079
			c-0.8781,0.88723-1.97324,1.58517-3.28545,2.0931c-1.31294,0.50866-2.81918,0.85946-4.51946,1.05386
			c-1.70101,0.19367-3.53101,0.29087-5.48999,0.29087v-1.74668c0.66542,0,1.41817-0.01827,2.25973-0.05555
			c0.84082-0.03654,1.70502-0.11474,2.59225-0.23532c0.88723-0.11986,1.77007-0.29599,2.64816-0.52693
			c0.87773-0.23094,1.68164-0.54081,2.4121-0.92888c0.7301-0.38807,1.35861-0.86896,1.88554-1.44193
			s0.89161-1.25703,1.09515-2.05144v-0.33326c-0.20354-0.79404-0.5642-1.4781-1.08126-2.05144
			c-0.51779-0.57261-1.13242-1.05349-1.84389-1.44193c-0.71182-0.38807-1.48833-0.69721-2.32915-0.92889
			c-0.84119-0.23058-1.69114-0.40634-2.55096-0.52656c-0.85946-0.12022-1.69589-0.19842-2.5093-0.23569
			c-0.81342-0.0369-1.55265-0.05554-2.21807-0.05554h-1.41416c-0.64715,0-1.38638,0.01864-2.21807,0.05554
			c-0.83168,0.03727-1.69151,0.11547-2.57874,0.23569s-1.76532,0.29599-2.63391,0.52656
			c-0.86896,0.23167-1.66849,0.54082-2.39859,0.92889c-0.73046,0.38844-1.36336,0.86932-1.89906,1.44193
			c-0.53643,0.57333-0.90586,1.25739-1.10903,2.05144v0.33326c0.20317,0.79441,0.57735,1.47847,1.12292,2.05144
			c0.54483,0.57297,1.19637,1.05386,1.95461,1.44193c0.75787,0.38807,1.5848,0.69794,2.48153,0.92888
			c0.89636,0.23095,1.79748,0.40707,2.70334,0.52693c0.9055,0.12059,1.78834,0.19878,2.64816,0.23532
			c0.85946,0.03727,1.62208,0.05555,2.2875,0.05555v1.74668c-1.95972,0-3.8036-0.0972-5.53165-0.29087
			c-1.72878-0.1944-3.27193-0.54958-4.63054-1.06774c-1.35861-0.51743-2.49103-1.21537-3.39653-2.0931
			c-0.90586-0.87773-1.51574-2.01051-1.83-3.3969v-0.60951c0.31426-1.38638,0.915-2.52319,1.80223-3.41042
			c0.88723-0.88723,1.99627-1.5848,3.32747-2.09346c1.33084-0.50829,2.83708-0.86384,4.51945-1.06738
			c1.68164-0.20354,3.4751-0.30512,5.37891-0.30512h1.41416c1.90381,0,3.68302,0.09684,5.33762,0.29124
			c1.65387,0.19403,3.12357,0.5452,4.40837,1.05349c1.2848,0.50866,2.35693,1.20623,3.21638,2.09346
			c0.85945,0.88723,1.44631,2.03354,1.76093,3.43819V57.3196z"/>
		<path fill="#FFFFFF" d="M78.68885,49.8337h2.19067v11.94981h-2.19067V49.8337z M78.68885,64.16821v-1.74668h29.11372v1.74668
			H78.68885z"/>
		<path fill="#FFFFFF" d="M116.64744,49.8337h2.19067v11.94981h-2.19067V49.8337z M116.64744,64.16821v-1.74668h29.11372v1.74668
			H116.64744z"/>
		<path fill="#FFFFFF" d="M156.79633,51.58039v3.90958h-2.19066V49.8337h29.66805v1.74669H156.79633z M184.27371,57.8743h-27.47739
			v4.54723h27.47739v1.74668h-29.66805v-8.01282h29.66805V57.8743z"/>
		<path fill="#FFFFFF" d="M192.95197,56.21093c0.51706-1.27566,1.24277-2.32441,2.17641-3.14695
			c0.93327-0.82255,2.03792-1.47408,3.31358-1.95497c1.2753-0.48052,2.69859-0.81305,4.26988-0.99795
			c1.57091-0.18454,3.24416-0.27735,5.0186-0.27735h15.05547v1.74669h-15.16618c-0.9245,0-1.99663,0.04641-3.21638,0.13886
			c-1.22012,0.09245-2.42635,0.29562-3.61833,0.60988c-1.19235,0.31462-2.29225,0.7765-3.2997,1.38638
			c-1.00783,0.60988-1.77008,1.44193-2.28751,2.49542H192.95197z M195.22557,56.87598
			c0.22182,0.85069,0.60037,1.5764,1.13681,2.17641c0.53606,0.60147,1.16458,1.10501,1.88554,1.51136
			c0.72096,0.40707,1.50624,0.73521,2.35655,0.98443c0.84996,0.24921,1.70978,0.43923,2.57874,0.56859
			c0.86859,0.12936,1.71417,0.21267,2.53708,0.24921c0.82219,0.03727,1.55704,0.05555,2.20419,0.05555h14.86142v1.74668h-14.75034
			c-1.90417,0-3.68338-0.10085-5.33762-0.30476c-1.6546-0.20317-3.13307-0.57297-4.43614-1.1094
			c-1.30344-0.5357-2.40808-1.2753-3.31358-2.21807c-0.90587-0.94277-1.55266-2.16253-1.94072-3.66H195.22557z"/>
		<path fill="#FFFFFF" d="M261.29919,49.8337v1.74669h-29.66805V49.8337H261.29919z M245.35614,52.21804h2.19029v11.95017h-2.19029
			V52.21804z"/>
		<path fill="#FFFFFF" d="M270.14371,49.8337h29.66769v1.74669h-13.75241v10.23089h-2.19028V51.58039h-13.72501V49.8337z
			 M270.14371,62.42152h29.66769v1.74668h-29.66769V62.42152z"/>
		<path fill="#FFFFFF" d="M338.4628,57.3196c-0.31497,1.38639-0.91061,2.52356-1.78833,3.41079
			c-0.87845,0.88723-1.97397,1.58517-3.28583,2.0931c-1.31256,0.50866-2.81879,0.85946-4.51944,1.05386
			c-1.70139,0.19367-3.53137,0.29087-5.48999,0.29087v-1.74668c0.66504,0,1.41855-0.01827,2.25974-0.05555
			c0.84045-0.03654,1.70502-0.11474,2.59225-0.23532c0.88721-0.11986,1.77005-0.29599,2.6478-0.52693
			c0.87772-0.23094,1.68237-0.54081,2.41245-0.92888c0.7301-0.38807,1.35861-0.86896,1.88556-1.44193
			c0.52692-0.57297,0.8916-1.25703,1.09552-2.05144v-0.33326c-0.20392-0.79404-0.56421-1.4781-1.08163-2.05144
			c-0.51743-0.57261-1.13278-1.05349-1.8439-1.44193c-0.71182-0.38807-1.48795-0.69721-2.32913-0.92889
			c-0.84119-0.23058-1.69116-0.40634-2.5506-0.52656c-0.85947-0.12022-1.69626-0.19842-2.50967-0.23569
			c-0.81342-0.0369-1.55228-0.05554-2.21808-0.05554h-1.41415c-0.64752,0-1.38638,0.01864-2.21808,0.05554
			c-0.83167,0.03727-1.69113,0.11547-2.57837,0.23569c-0.88721,0.12022-1.76569,0.29599-2.63464,0.52656
			c-0.86896,0.23167-1.66776,0.54082-2.39786,0.92889c-0.7308,0.38844-1.36371,0.86932-1.89941,1.44193
			c-0.53644,0.57333-0.90622,1.25739-1.10941,2.05144v0.33326c0.20319,0.79441,0.57736,1.47847,1.12329,2.05144
			c0.5452,0.57297,1.19638,1.05386,1.95499,1.44193c0.75711,0.38807,1.58441,0.69794,2.48114,0.92888
			c0.89673,0.23095,1.79785,0.40707,2.70337,0.52693c0.90549,0.12059,1.78833,0.19878,2.6478,0.23532
			c0.85944,0.03727,1.62244,0.05555,2.28748,0.05555v1.74668c-1.95935,0-3.80322-0.0972-5.53165-0.29087
			c-1.72842-0.1944-3.27118-0.54958-4.62982-1.06774c-1.35861-0.51743-2.49139-1.21537-3.39688-2.0931
			s-1.51575-2.01051-1.82999-3.3969v-0.60951c0.31424-1.38638,0.91498-2.52319,1.80222-3.41042
			c0.88724-0.88723,1.99661-1.5848,3.32745-2.09346c1.33084-0.50829,2.8371-0.86384,4.51947-1.06738
			c1.68164-0.20354,3.4751-0.30512,5.37891-0.30512h1.41415c1.90381,0,3.68265,0.09684,5.33725,0.29124
			c1.6546,0.19403,3.12357,0.5452,4.40912,1.05349c1.28406,0.50866,2.3569,1.20623,3.21637,2.09346
			c0.85947,0.88723,1.44559,2.03354,1.76056,3.43819V57.3196z"/>
		<path fill="#FFFFFF" d="M375.58899,61.64538v2.10698l-26.09137-11.67282v12.08866h-2.19031V49.8337h1.91333L375.58899,61.64538z
			 M376.25476,64.16821V49.8337h2.19031v14.3345H376.25476z"/>
	</g>
	<g>
		
			<linearGradient id="SVGID_1_" gradientUnits="userSpaceOnUse" x1="395.45319" y1="25.18402" x2="375.14975" y2="56.10061" gradientTransform="matrix(0.99024 0.13936 -0.13936 0.99024 34.26131 -42.60585)">
			<stop  offset="0" style="stop-color:#AAFFC8"/>
			<stop  offset="1" style="stop-color:#47FF89"/>
		</linearGradient>
		<path fill="url(#SVGID_1_)" d="M433.47314,61.00485l-30.26657-22.37244L452.67661,0l-63.94885,37.21929l25.59607,26.71185
			c0,0-3.92804,7.71149-9.97125,17.64309l18.48328-6.20385C426.22552,70.93195,429.76886,66.15134,433.47314,61.00485z"/>
		
			<linearGradient id="SVGID_2_" gradientUnits="userSpaceOnUse" x1="340.92709" y1="96.20737" x2="357.00778" y2="61.57206" gradientTransform="matrix(0.99024 0.13936 -0.13936 0.99024 34.26131 -42.60585)">
			<stop  offset="0" style="stop-color:#AAFFC8"/>
			<stop  offset="1" style="stop-color:#47FF89"/>
		</linearGradient>
		<path fill="url(#SVGID_2_)" d="M334.43469,99.23312c0,0,5.19443,51.80725,74.27087-38.64153l-18.48328,6.20385
			C375.44797,91.07592,348.02841,128.62894,334.43469,99.23312z"/>
	</g>
</g>
</svg>
