<?xml version="1.0" standalone="no"?>
<!DOCTYPE svg PUBLIC "-//W3C//DTD SVG 20010904//EN"
 "http://www.w3.org/TR/2001/REC-SVG-20010904/DTD/svg10.dtd">
<svg version="1.0" xmlns="http://www.w3.org/2000/svg"
 width="504.000000pt" height="504.000000pt" viewBox="0 0 504.000000 504.000000"
 preserveAspectRatio="xMidYMid meet">
<metadata>
Created by potrace 1.11, written by Peter Selinger 2001-2013
</metadata>
<g transform="translate(0.000000,504.000000) scale(0.100000,-0.100000)"
fill="#000000" stroke="none">
<path d="M4610 4556 c-19 -13 -96 -58 -170 -101 -488 -283 -588 -341 -610
-355 -8 -5 -44 -26 -80 -46 -66 -38 -273 -157 -300 -174 -8 -5 -71 -41 -140
-81 l-125 -73 -505 -2 c-278 0 -550 -4 -605 -8 -172 -11 -239 -17 -275 -21
-19 -2 -64 -7 -100 -10 -91 -9 -302 -42 -385 -61 -38 -9 -79 -18 -91 -20 -36
-7 -216 -63 -289 -91 -79 -30 -248 -109 -315 -149 -167 -97 -371 -284 -465
-424 -52 -78 -158 -280 -151 -288 4 -3 175 -5 327 -3 51 1 57 3 68 29 29 62
110 171 178 239 144 143 376 270 653 358 47 15 96 29 110 31 14 3 50 11 80 19
82 21 257 53 325 60 33 3 69 8 80 10 11 2 67 7 125 10 58 4 121 9 140 11 19 2
159 7 310 10 l275 5 -145 -85 c-80 -47 -152 -90 -160 -95 -8 -4 -15 -13 -15
-19 0 -9 121 -141 326 -353 96 -99 427 -444 483 -503 26 -28 62 -65 78 -83
l31 -32 -45 -83 c-102 -188 -173 -312 -265 -468 -28 -47 -50 -86 -49 -87 1 -1
152 49 336 111 l335 113 75 99 c201 266 314 424 309 428 -2 2 -238 175 -524
386 -286 211 -530 393 -543 405 l-23 21 156 122 156 122 924 0 925 0 0 148 0
147 -730 0 c-401 0 -730 3 -730 7 0 4 6 11 14 15 7 4 29 20 47 35 19 15 93 72
164 128 72 55 144 112 160 125 17 12 158 123 315 246 395 308 384 299 374 298
-5 0 -25 -10 -44 -23z"/>
<path d="M10 2534 c0 -2 14 -48 31 -101 165 -517 574 -852 1229 -1009 124 -30
236 -51 305 -59 28 -3 59 -7 70 -9 11 -2 54 -7 95 -11 41 -4 78 -9 83 -12 7
-4 -25 -44 -118 -152 -101 -117 -277 -294 -340 -342 -16 -13 -32 -26 -35 -29
-19 -21 -157 -113 -215 -142 -221 -113 -406 -98 -557 45 -56 53 -118 136 -152
205 -30 59 -37 65 -30 25 26 -146 98 -296 182 -379 241 -236 644 -123 1176
330 100 85 154 136 295 276 l136 135 1435 0 1435 0 3 148 c2 114 0 147 -10
148 -7 0 -592 1 -1300 1 l-1287 1 29 36 c16 20 41 50 56 66 14 17 43 50 63 75
20 25 44 54 54 65 10 11 69 83 131 160 205 255 296 372 296 379 0 6 -675 -225
-678 -232 -3 -9 -93 -150 -189 -296 -43 -65 -82 -126 -88 -134 -5 -9 -15 -22
-22 -29 -7 -8 -20 -27 -30 -44 l-18 -30 -90 6 c-49 4 -92 8 -95 10 -3 2 -32 6
-65 10 -89 10 -92 10 -225 36 -630 122 -1054 417 -1170 815 l-12 42 -189 0
c-104 0 -189 -2 -189 -4z"/>
</g>
</svg>
